<?xml version='1.0' encoding='utf-8'?>
<svg xmlns="http://www.w3.org/2000/svg" width="1920" height="1080" viewBox="0 0 1920 1080" data-theme="light" data-semantic-intent="taxonomy_list" data-relation-type="taxonomy" data-site-visual-identity="signal-cobalt">
  <style>
        @font-face {
            font-family: 'Inter';
            src: url('assets/fonts/Inter-Regular.ttf') format('truetype');
            font-weight: 400;
            font-style: normal;
            font-display: swap;
        }
        @font-face {
            font-family: 'Inter';
            src: url('assets/fonts/Inter-Bold.ttf') format('truetype');
            font-weight: 600;
            font-style: normal;
            font-display: swap;
        }
        @font-face {
            font-family: 'Inter';
            src: url('assets/fonts/Inter-Bold.ttf') format('truetype');
            font-weight: 800;
            font-style: normal;
            font-display: swap;
        }
        
:root {
    --background: #f8fafc;
    --panel: #ffffff;
    --primary-text: #0f172a;
    --muted-text: #64748b;
    --inverse-text: #ffffff;
    --border: #e2e8f0;
    --shadow-color: #000000;
    --icon-pad-bg: #1e293b;
    --art-glow: #0891b2;
    --art-glow-opacity: 0.10;
    --art-sheen: #ffffff;
    --art-sheen-opacity: 0.34;
    --art-shadow: #0f172a;
    --art-shadow-opacity: 0.14;
    --art-muted-line: #94a3b8;
    --art-panel-tint: #f1f5f9;
    --semantic-risk: #b91c1c;
    --semantic-warning: #c2410c;
    --semantic-uncertain: #a16207;
    --semantic-evidence: #1d4ed8;
    --semantic-claim: #6d28d9;
    --semantic-positive: #15803d;
    --semantic-outcome: #0e7490;
    --font-family: 'Inter', 'Segoe UI', 'Kalam', Roboto, Helvetica, Arial, sans-serif;
    --radius-xl: 16px;
    --font-family-headline: 'Segoe UI Variable Display', 'Aptos Display', 'Inter', 'Segoe UI', Helvetica, Arial, sans-serif;
    --font-family-body: 'Segoe UI Variable Text', 'Aptos', 'Inter', 'Segoe UI', Helvetica, Arial, sans-serif;
    --font-heading: var(--font-family-headline);
    --font-body: var(--font-family-body);
    --font-size-h1: 64px;
    --font-size-h2: 42px;
    --font-size-h3: 29px;
    --font-size-body: 21px;
    --font-size-caption: 17px;
    --secondary-text: var(--muted-text);
    --panel-border: var(--border);
    --font-weight-normal: 400;
    --font-weight-medium: 500;
    --font-weight-semibold: 600;
    --font-weight-bold: 700;
    --spacing-gutter-pct: 0.07;
    --spacing-top-pct: 0.15;
    --spacing-bottom-pct: 0.07;
    --spacing-title-y-pct: 0.055;
    --accent-1: #1d4ed8;
    --accent-2: #2563eb;
    --accent-3: #4f46e5;
    --accent-4: #6d28d9;
    --accent-5: #0369a1;
    --accent-6: #c2410c;
}
:root[data-theme="dark"] {
    --background: #0f172a;
    --panel: #1e293b;
    --primary-text: #f1f5f9;
    --muted-text: #94a3b8;
    --inverse-text: #0f172a;
    --border: #334155;
    --shadow-color: #000000;
    --icon-pad-bg: #1e293b;
    --art-glow: #7dd3fc;
    --art-glow-opacity: 0.18;
    --art-sheen: #ffffff;
    --art-sheen-opacity: 0.18;
    --art-shadow: #000000;
    --art-shadow-opacity: 0.28;
    --art-muted-line: #64748b;
    --art-panel-tint: #1e293b;
    --semantic-risk: #f87171;
    --semantic-warning: #fb923c;
    --semantic-uncertain: #fbbf24;
    --semantic-evidence: #60a5fa;
    --semantic-claim: #c084fc;
    --semantic-positive: #4ade80;
    --semantic-outcome: #22d3ee;
    --accent-1: #93c5fd;
    --accent-2: #60a5fa;
    --accent-3: #818cf8;
    --accent-4: #a78bfa;
    --accent-5: #38bdf8;
    --accent-6: #fb923c;
}
:root[data-theme="light"] {
    --background: #f8fafc;
    --panel: #ffffff;
    --primary-text: #0f172a;
    --muted-text: #64748b;
    --inverse-text: #ffffff;
    --border: #e2e8f0;
    --shadow-color: #000000;
    --icon-pad-bg: #1e293b;
    --art-glow: #0891b2;
    --art-glow-opacity: 0.10;
    --art-sheen: #ffffff;
    --art-sheen-opacity: 0.34;
    --art-shadow: #0f172a;
    --art-shadow-opacity: 0.14;
    --art-muted-line: #94a3b8;
    --art-panel-tint: #f1f5f9;
    --semantic-risk: #b91c1c;
    --semantic-warning: #c2410c;
    --semantic-uncertain: #a16207;
    --semantic-evidence: #1d4ed8;
    --semantic-claim: #6d28d9;
    --semantic-positive: #15803d;
    --semantic-outcome: #0e7490;
    --accent-1: #1d4ed8;
    --accent-2: #2563eb;
    --accent-3: #4f46e5;
    --accent-4: #6d28d9;
    --accent-5: #0369a1;
    --accent-6: #c2410c;
}</style>
  <rect x="0" y="0" width="1.92E+3" height="1.08E+3" fill="#252a34" stroke="none" id="programmatic_background"/>
  <line id="HEADER_DECOR" x1="960.0" x2="1080.0" y1="105.0" y2="105.0" stroke="var(--accent-1)" stroke-width="6" stroke-linecap="round"/>
  <defs>
    <pattern id="svg307f62c6-napkin-hatch" patternUnits="userSpaceOnUse" width="12" height="12">
      <path d="M -3 12 L 12 -3 M 0 15 L 15 0" fill="none" stroke="var(--primary-text)" stroke-width="1" stroke-opacity="0.05"/>
    </pattern>
    <filter id="svg307f62c6-shadow" x="-30%" y="-30%" width="160%" height="160%">
      <feDropShadow dx="0" dy="3" stdDeviation="6" flood-color="#000000" flood-opacity="0.10"/>
      <feDropShadow dx="0" dy="8" stdDeviation="12" flood-color="#000000" flood-opacity="0.16"/>
    </filter>
    <radialGradient id="svg307f62c6-universal-edge-vignette" cx="50%" cy="50%" r="72%">
      <stop offset="0%" stop-color="var(--background)" stop-opacity="0"/>
      <stop offset="72%" stop-color="var(--background)" stop-opacity="0.12"/>
      <stop offset="100%" stop-color="var(--primary-text)" stop-opacity="0.08"/>
    </radialGradient>
    <linearGradient id="svg307f62c6-universal-surface-sheen" x1="0%" y1="0%" x2="100%" y2="100%">
      <stop offset="0%" stop-color="var(--art-sheen)" stop-opacity="var(--art-sheen-opacity)"/>
      <stop offset="46%" stop-color="var(--art-sheen)" stop-opacity="0.035"/>
      <stop offset="100%" stop-color="var(--art-panel-tint)" stop-opacity="0.14"/>
    </linearGradient>
    <radialGradient id="svg307f62c6-universal-icon-aura" cx="50%" cy="42%" r="64%">
      <stop offset="0%" stop-color="var(--art-glow)" stop-opacity="var(--art-glow-opacity)"/>
      <stop offset="100%" stop-color="var(--background)" stop-opacity="0"/>
    </radialGradient>
    <linearGradient id="svg307f62c6-card-panel-sheen" x1="0%" y1="0%" x2="100%" y2="100%">
      <stop offset="0%" stop-color="var(--inverse-text)" stop-opacity="0.20"/>
      <stop offset="48%" stop-color="var(--inverse-text)" stop-opacity="0.04"/>
      <stop offset="100%" stop-color="var(--background)" stop-opacity="0.16"/>
    </linearGradient>
    <radialGradient id="svg307f62c6-card-icon-glow" cx="50%" cy="35%" r="62%">
      <stop offset="0%" stop-color="var(--inverse-text)" stop-opacity="0.22"/>
      <stop offset="100%" stop-color="var(--background)" stop-opacity="0"/>
    </radialGradient>
    <filter id="svg307f62c6-text-glow" x="-20%" y="-20%" width="140%" height="140%">
      <feDropShadow dx="0" dy="0" stdDeviation="2" flood-color="#000000" flood-opacity="0.4"/>
    </filter>
    <marker id="svg307f62c6-arrowhead" markerWidth="10" markerHeight="7" refX="9" refY="3.5" orient="auto" markerUnits="strokeWidth">
      <polygon points="0 0, 10 3.5, 0 7" fill="var(--muted-text)" opacity="0.6"/>
    </marker>
  </defs>
  <rect width="100%" height="100%" fill="var(--background)" id="CANVAS_BG"/>
  <rect width="100%" height="100%" fill="url(#svg307f62c6-napkin-hatch)"/>
  <rect id="UNIVERSAL_EDGE_VIGNETTE" width="100%" height="100%" fill="url(#svg307f62c6-universal-edge-vignette)" opacity="0.62"/>
  <text id="TITLE" x="960.0" y="59" font-size="54" font-weight="800" fill="#0f172a" text-anchor="middle" style="font-size: 69px; font-family: 'Segoe UI Variable Display', 'Aptos Display', 'Inter', 'Segoe UI', Helvetica, Arial, sans-serif; font-weight: 800; font-kerning: normal; font-feature-settings: &quot;kern&quot; 1, &quot;liga&quot; 1; letter-spacing:-1.2px;" data-final-font-size="69">
    <tspan x="960.0" dy="70.47px">Inconsistent RCMP Incident Categories</tspan>
  </text>
  <rect id="TITLE_FRAME" x="134" y="35" width="1652" height="78" fill="none"/>
  <rect x="120" y="150" width="1680" height="830" rx="40" fill="var(--panel)" fill-opacity="0.24" stroke="var(--muted-text)" stroke-width="2" opacity="0.94"/>
  <g id="DIAGRAM_MAIN">
    <g filter="url(#svg307f62c6-shadow)">
      <rect id="ITEM_1_BG" x="170" y="180" width="480" height="388" rx="28" fill="var(--panel)" fill-opacity="0.98" stroke="var(--accent-1)" stroke-width="3"/>
      <rect x="170" y="180" width="480" height="18" rx="9" fill="var(--accent-1)" fill-opacity="0.55"/>
      <rect x="295" y="216" width="230" height="30" rx="15" fill="var(--accent-1)" fill-opacity="0.10"/>
      <circle id="ITEM_1_PAD" cx="410" cy="262" r="54" fill="var(--icon-pad-bg)" opacity="1" fill-opacity="0.9" stroke-width="2" stroke="var(--accent-1)" stroke-opacity="0.72" data-badge-layer="pad"/>
      <circle id="ITEM_1_PAD_INNER" cx="410" cy="262" r="42.12" fill="var(--accent-1)" fill-opacity="0.12" stroke="none" data-badge-layer="tint"/>
      <circle cx="410" cy="262" r="42" fill="none" stroke="var(--accent-1)" stroke-width="3" stroke-dasharray="6 4" display="none" data-suppressed-decoration="redundant-badge-ring"/>
      <g id="ITEM_1_ICON" transform="translate(373, 225)" data-icon-size="74" stroke-linecap="round" stroke-linejoin="round" data-badge-treatment="clean">
        <g transform="translate(-9.080000000000005,-8.720000000000006) scale(0.18000000000000002)" vector-effect="non-scaling-stroke" fill="#f1f5f9" fill-opacity="1.0" stroke="none">
          <path fill="#f1f5f9" d="M352 21v18h39v16h18V39h39V21zm35 52l-40 30h106l-40-30zM69.48 120.5l-8.96 15.6l110.98 63.7l35.6 20.4l33.6-58.7l-77 13.1zM329 121v30h30v-30zm48 0v30h46v-30zm64 0v30h30v-30zm-103 48l34.5 46h55l34.5-46zm39 64v30h46v-30zm0 48v206h46V281zM68.52 329L34.3 375H359v-46zM25 393v94h30v-64h66v64h238v-94zm416 .5V487h46v-65.9zM160 439h48v18h-48zm96 0h48v18h-48zm-183 2v46h30v-46z" vector-effect="non-scaling-stroke" stroke="none"/>
        </g>
      </g>
      <text id="ITEM_1_HEAD" x="410.0" y="328.0" font-weight="800" font-size="28" fill="var(--accent-1)" text-anchor="middle" data-bg-id="ITEM_1_BG" fill-opacity="1.0" style="font-size: 31px; font-family: 'Segoe UI Variable Display', 'Aptos Display', 'Inter', 'Segoe UI', Helvetica, Arial, sans-serif; font-weight: 700; font-kerning: normal; font-feature-settings: &quot;kern&quot; 1, &quot;liga&quot; 1; letter-spacing:-0.4px;" data-final-font-size="31">
        <tspan x="410.0" dy="43.24px">Aeronautics Act</tspan>
      </text>
      <rect id="ITEM_1_HEAD_FRAME" x="230" y="328" width="360" height="56" fill="none"/>
      <text id="ITEM_1_BODY" x="410.0" y="378.0" font-size="18" fill="var(--primary-text)" text-anchor="middle" data-bg-id="ITEM_1_BG" style="font-size: 23px; font-family: 'Segoe UI Variable Text', 'Aptos', 'Inter', 'Segoe UI', Helvetica, Arial, sans-serif; font-weight: 400; font-kerning: normal; font-feature-settings: &quot;kern&quot; 1, &quot;liga&quot; 1;" data-final-font-size="23">
        <tspan x="410.0" dy="46.51px">Logged as non-criminal aviation</tspan>
        <tspan x="410.0" dy="26.45px">or airspace matters</tspan>
      </text>
      <rect id="ITEM_1_BODY_FRAME" x="195" y="378" width="430" height="156" fill="none"/>
    </g>
    <g filter="url(#svg307f62c6-shadow)">
      <rect id="ITEM_2_BG" x="720" y="180" width="480" height="388" rx="28" fill="var(--panel)" fill-opacity="0.98" stroke="var(--accent-2)" stroke-width="3"/>
      <rect x="720" y="180" width="480" height="18" rx="9" fill="var(--accent-2)" fill-opacity="0.55"/>
      <rect x="845" y="216" width="230" height="30" rx="15" fill="var(--accent-2)" fill-opacity="0.10"/>
      <circle id="ITEM_2_PAD" cx="960" cy="262" r="54" fill="var(--icon-pad-bg)" opacity="1" fill-opacity="0.9" stroke-width="2" stroke="var(--accent-2)" stroke-opacity="0.72" data-badge-layer="pad"/>
      <circle id="ITEM_2_PAD_INNER" cx="960" cy="262" r="42.12" fill="var(--accent-2)" fill-opacity="0.12" stroke="none" data-badge-layer="tint"/>
      <circle cx="960" cy="262" r="42" fill="none" stroke="var(--accent-2)" stroke-width="3" stroke-dasharray="6 4" display="none" data-suppressed-decoration="redundant-badge-ring"/>
      <g id="ITEM_2_ICON" transform="translate(923, 225)" data-icon-size="74" stroke-linecap="round" stroke-linejoin="round" data-badge-treatment="clean">
        <g transform="translate(-11.137142857142862,-20.16285714285715) scale(3.008571428571429)">
          <path d="M4 21H28V27H4V21Z" fill="black"/>
          <path d="M21.79 11.01C22.53 11.01 23.21 11.43 23.54 12.09L23.9921 12.9942L24.9327 15.9971L26.995 19H28.0407C29.1203 19 30 19.8789 30 20.9575L29.6141 22.4768L30 23.996V25.0424C30 26.1211 29.1203 27 28.0407 27H27.469C27.4895 26.8362 27.5 26.6693 27.5 26.5C27.5 24.2909 25.7091 22.5 23.5 22.5C21.2909 22.5 19.5 24.2909 19.5 26.5C19.5 26.6693 19.5105 26.8362 19.5309 27H12.4691C12.4895 26.8362 12.5 26.6693 12.5 26.5C12.5 24.2909 10.7091 22.5 8.5 22.5C6.29086 22.5 4.5 24.2909 4.5 26.5C4.5 26.6693 4.51052 26.8362 4.53095 27H3.9593C2.87968 27 2 26.1211 2 25.0424V24.0037L3.31953 22.5056L2 21.0075C2 19.8589 2.87968 19.01 3.9593 19.01L7.0007 19.0086L9.19709 16.0975L10.0048 13.0004L10.46 12.09C10.79 11.43 11.47 11.01 12.21 11.01H17H21.79Z" fill="#636363"/>
          <path d="M12 26.5C12 28.433 10.433 30 8.5 30C6.567 30 5 28.433 5 26.5C5 24.567 6.567 23 8.5 23C10.433 23 12 24.567 12 26.5ZM27 26.5C27 28.433 25.433 30 23.5 30C21.567 30 20 28.433 20 26.5C20 24.567 21.567 23 23.5 23C25.433 23 27 24.567 27 26.5Z" fill="#321B41"/>
          <path d="M16 10H18V11H16V10Z" fill="#D3D3D3"/>
          <path d="M8 22.5309V19H24V22.5309C23.8362 22.5105 23.6693 22.5 23.5 22.5C21.2909 22.5 19.5 24.2909 19.5 26.5C19.5 26.6693 19.5105 26.8362 19.5309 27H12.4691C12.4895 26.8362 12.5 26.6693 12.5 26.5C12.5 24.2909 10.7091 22.5 8.5 22.5C8.33067 22.5 8.1638 22.5105 8 22.5309Z" fill="#D3D3D3"/>
          <path d="M10 26.5C10 27.3284 9.32843 28 8.5 28C7.67157 28 7 27.3284 7 26.5C7 25.6716 7.67157 25 8.5 25C9.32843 25 10 25.6716 10 26.5Z" fill="#D3D3D3"/>
          <path d="M25 26.5C25 27.3284 24.3284 28 23.5 28C22.6716 28 22 27.3284 22 26.5C22 25.6716 22.6716 25 23.5 25C24.3284 25 25 25.6716 25 26.5Z" fill="#D3D3D3"/>
          <path d="M4 22C4 21.45 3.55 21 3 21H2V23.34V24H3C3.55 24 4 23.55 4 23V22Z" fill="#FFF478"/>
          <path fill-rule="evenodd" clip-rule="evenodd" d="M16 9C16 8.45 16.45 8 17 8C17.55 8 18 8.45 18 9V10H16V9ZM28 22.57C27.96 21.71 28.65 21 29.5 21H30V22V24H29.55C28.74 24 28.04 23.38 28 22.57Z" fill="#F92F60"/>
          <path d="M15.02 19H7L10 13H15.02C15.56 13 16 13.44 16 13.98V18.02C16 18.56 15.56 19 15.02 19ZM18.98 19H27L24 13H18.98C18.44 13 18 13.44 18 13.98V18.02C18 18.56 18.44 19 18.98 19Z" fill="#26C9FC"/>
          <path d="M11.13 20H11.52C11.79 20 12 19.78 12 19.52V17.48C12 17.21 11.78 17 11.52 17H11.13C10.51 17 10 17.51 10 18.13V18.87C10 19.5 10.51 20 11.13 20Z" fill="#D3D3D3"/>
          <path d="M11.13 20H11.52C11.79 20 12 19.78 12 19.52V17.48C12 17.21 11.78 17 11.52 17H11.13C10.51 17 10 17.51 10 18.13V18.87C10 19.5 10.51 20 11.13 20Z" fill="#9B9B9B"/>
        </g>
      </g>
      <text id="ITEM_2_HEAD" x="960.0" y="328.0" font-weight="800" font-size="28" fill="var(--accent-2)" text-anchor="middle" data-bg-id="ITEM_2_BG" fill-opacity="1.0" style="font-size: 31px; font-family: 'Segoe UI Variable Display', 'Aptos Display', 'Inter', 'Segoe UI', Helvetica, Arial, sans-serif; font-weight: 700; font-kerning: normal; font-feature-settings: &quot;kern&quot; 1, &quot;liga&quot; 1; letter-spacing:-0.4px;" data-final-font-size="31">
        <tspan x="960.0" dy="43.24px">Suspicious Activity</tspan>
      </text>
      <rect id="ITEM_2_HEAD_FRAME" x="780" y="328" width="360" height="56" fill="none"/>
      <text id="ITEM_2_BODY" x="960.0" y="378.0" font-size="18" fill="var(--primary-text)" text-anchor="middle" data-bg-id="ITEM_2_BG" style="font-size: 23px; font-family: 'Segoe UI Variable Text', 'Aptos', 'Inter', 'Segoe UI', Helvetica, Arial, sans-serif; font-weight: 400; font-kerning: normal; font-feature-settings: &quot;kern&quot; 1, &quot;liga&quot; 1;" data-final-font-size="23">
        <tspan x="960.0" dy="46.51px">Grouped with general public safety calls</tspan>
        <tspan x="960.0" dy="26.45px">and vehicles</tspan>
      </text>
      <rect id="ITEM_2_BODY_FRAME" x="745" y="378" width="430" height="156" fill="none"/>
    </g>
    <g filter="url(#svg307f62c6-shadow)">
      <rect id="ITEM_3_BG" x="1270" y="180" width="480" height="388" rx="28" fill="var(--panel)" fill-opacity="0.98" stroke="var(--accent-3)" stroke-width="3"/>
      <rect x="1270" y="180" width="480" height="18" rx="9" fill="var(--accent-3)" fill-opacity="0.55"/>
      <rect x="1395" y="216" width="230" height="30" rx="15" fill="var(--accent-3)" fill-opacity="0.10"/>
      <circle id="ITEM_3_PAD" cx="1510" cy="262" r="54" fill="var(--icon-pad-bg)" opacity="1" fill-opacity="0.9" stroke-width="2" stroke="var(--accent-3)" stroke-opacity="0.72" data-badge-layer="pad"/>
      <circle id="ITEM_3_PAD_INNER" cx="1510" cy="262" r="42.12" fill="var(--accent-3)" fill-opacity="0.12" stroke="none" data-badge-layer="tint"/>
      <circle cx="1510" cy="262" r="42" fill="none" stroke="var(--accent-3)" stroke-width="3" stroke-dasharray="6 4" display="none" data-suppressed-decoration="redundant-badge-ring"/>
      <g id="ITEM_3_ICON" transform="translate(1473, 225)" data-icon-size="74" stroke-linecap="round" stroke-linejoin="round" data-badge-treatment="clean">
        <g transform="translate(-11.137142857142862,-9.632857142857148) scale(3.008571428571429)">
          <path fill-rule="evenodd" clip-rule="evenodd" d="M10 8.83354V3.52275C10 3.23233 9.75879 3 9.46734 3H6.54271C6.24121 3 6 3.23233 6 3.52275V12.1687L5 13.0025V29.0025H27V14.0025L16.07 3.77246L10 8.83354Z" fill="#F3C07B"/>
          <path d="M15.92 27.0025H8.08C8.04 27.0025 8 26.9625 8 26.9225V16.3925C8 15.6425 8.61 15.0325 9.36 15.0325H14.65C15.4 15.0325 16.01 15.6425 16.01 16.3925V26.9225C16 26.9625 15.96 27.0025 15.92 27.0025Z" fill="#8C5543"/>
          <path d="M14.5 21.0024C14.7761 21.0024 15 20.7786 15 20.5024C15 20.2263 14.7761 20.0024 14.5 20.0024C14.2239 20.0024 14 20.2263 14 20.5024C14 20.7786 14.2239 21.0024 14.5 21.0024Z" fill="#402A32"/>
          <path d="M15.96 28.0024H8C7.45 28.0024 7 27.5524 7 27.0024C7 26.4524 7.45 26.0024 8 26.0024H15.96C16.51 26.0024 16.96 26.4524 16.96 27.0024C16.96 27.5524 16.51 28.0024 15.96 28.0024Z" fill="#D3D3D3"/>
          <path d="M30 29.0024H2V28.9124C2 27.8524 2.85 27.0024 3.91 27.0024H28.09C29.14 27.0024 30 27.8524 30 28.9124V29.0024Z" fill="#00F397"/>
          <path d="M16.88 2.3525L29.64 14.9225C30.12 15.3925 30.12 16.1525 29.64 16.6125C29.17 17.0825 28.4 17.0825 27.92 16.6125L16.02 4.8925L4.08 16.6525C3.61 17.1225 2.84 17.1225 2.36 16.6525C1.88 16.1825 1.88 15.4225 2.36 14.9525L15.16 2.3525C15.63 1.8825 16.4 1.8825 16.88 2.3525Z" fill="#F8312F"/>
          <path d="M23.14 21.0024H18.86C18.38 21.0024 18 20.6224 18 20.1424V15.8624C18 15.3924 18.38 15.0024 18.86 15.0024H23.14C23.61 15.0024 24 15.3824 24 15.8624V20.1424C24 20.6224 23.62 21.0024 23.14 21.0024Z" fill="#83CBFF"/>
        </g>
      </g>
      <text id="ITEM_3_HEAD" x="1510.0" y="328.0" font-weight="800" font-size="28" fill="var(--accent-3)" text-anchor="middle" data-bg-id="ITEM_3_BG" fill-opacity="1.0" style="font-size: 31px; font-family: 'Segoe UI Variable Display', 'Aptos Display', 'Inter', 'Segoe UI', Helvetica, Arial, sans-serif; font-weight: 700; font-kerning: normal; font-feature-settings: &quot;kern&quot; 1, &quot;liga&quot; 1; letter-spacing:-0.4px;" data-final-font-size="31">
        <tspan x="1510.0" dy="43.24px">Operational Matters</tspan>
      </text>
      <rect id="ITEM_3_HEAD_FRAME" x="1330" y="328" width="360" height="56" fill="none"/>
      <text id="ITEM_3_BODY" x="1510.0" y="378.0" font-size="18" fill="var(--primary-text)" text-anchor="middle" data-bg-id="ITEM_3_BG" style="font-size: 23px; font-family: 'Segoe UI Variable Text', 'Aptos', 'Inter', 'Segoe UI', Helvetica, Arial, sans-serif; font-weight: 400; font-kerning: normal; font-feature-settings: &quot;kern&quot; 1, &quot;liga&quot; 1;" data-final-font-size="23">
        <tspan x="1510.0" dy="46.51px">Associated with noise complaints</tspan>
        <tspan x="1510.0" dy="26.45px">or trespassing issues</tspan>
      </text>
      <rect id="ITEM_3_BODY_FRAME" x="1295" y="378" width="430" height="156" fill="none"/>
    </g>
    <g filter="url(#svg307f62c6-shadow)">
      <rect id="ITEM_4_BG" x="260" y="580" width="660" height="370" rx="30" fill="var(--panel)" fill-opacity="0.98" stroke="var(--accent-4)" stroke-width="3"/>
      <rect x="260" y="590" width="660" height="18" rx="9" fill="var(--accent-4)" fill-opacity="0.55"/>
      <rect x="430" y="628" width="320" height="32" rx="16" fill="var(--accent-4)" fill-opacity="0.10"/>
      <circle id="ITEM_4_PAD" cx="590" cy="684" r="54" fill="var(--icon-pad-bg)" opacity="1" fill-opacity="0.9" stroke-width="2" stroke="var(--accent-1)" stroke-opacity="0.72" data-badge-layer="pad"/>
      <circle id="ITEM_4_PAD_INNER" cx="590" cy="684" r="42.12" fill="var(--accent-1)" fill-opacity="0.12" stroke="none" data-badge-layer="tint"/>
      <circle cx="590" cy="684" r="42" fill="none" stroke="var(--accent-4)" stroke-width="3" stroke-dasharray="6 4" display="none" data-suppressed-decoration="redundant-badge-ring"/>
      <g id="ITEM_4_ICON" transform="translate(551, 645)" data-icon-size="78" stroke-linecap="round" stroke-linejoin="round" data-badge-treatment="clean">
        <g transform="translate(-9.137142857142862,-15.15428571428572) scale(3.008571428571429)">
          <path d="M11.4063 6.15625C6.13126 5.50625 4.25001 8.15625 3.34376 9.37501C0.875013 13.0156 2.35939 17.0156 4.15626 18.9375C4.15626 18.9375 14.25 28.7656 14.5313 29.0312C14.8125 29.2969 15.4766 30.2031 17.0781 29.9453C18.4757 29.7203 18.875 28.0312 18.875 28.0312C18.875 28.0312 19.9073 28.8731 21.3906 28.0312C22.5469 27.375 22.5 26.0625 22.5 26.0625C22.5 26.0625 23.7383 26.6829 25.0625 25.5625C26.2553 24.5532 25.5156 22.7812 25.5156 22.7812C25.5156 22.7812 26.5856 22.9571 27.3438 22.125C28.3688 21 28.0156 19.5781 27.3438 18.9375L19.625 10.5L19.0313 7.375L11.4063 6.15625Z" fill="#FFC83D"/>
          <path d="M26.7074 22.5933L24.4809 20.3364C24.287 20.1398 23.9704 20.1376 23.7739 20.3315C23.5773 20.5255 23.5751 20.8421 23.769 21.0386L25.5334 22.8272C25.5223 22.7973 25.5156 22.7812 25.5156 22.7812C25.5156 22.7812 26.0977 22.8769 26.7074 22.5933Z" fill="#D67D00"/>
          <path d="M23.9779 26.1509L21.6684 23.5872C21.4835 23.382 21.1674 23.3656 20.9622 23.5504C20.757 23.7352 20.7406 24.0514 20.9254 24.2565L22.5845 26.0983C22.7836 26.1741 23.3157 26.3302 23.9779 26.1509Z" fill="#D67D00"/>
          <path d="M20.5759 28.351L18.7698 26.438C18.5802 26.2372 18.2638 26.2281 18.063 26.4177C17.8622 26.6073 17.8531 26.9237 18.0427 27.1245L18.9471 28.0824C19.1457 28.2124 19.7417 28.5326 20.5759 28.351Z" fill="#D67D00"/>
          <path d="M18.4033 29.0535C17.6442 29.2557 16.2359 29.3193 15.2656 28.2812L14.4899 28.9916C14.51 29.011 14.524 29.0244 14.5313 29.0312C14.5602 29.0586 14.5932 29.0927 14.6309 29.1317C14.9591 29.4711 15.6414 30.1766 17.0781 29.9453C17.6998 29.8452 18.124 29.4554 18.4033 29.0535Z" fill="#D67D00"/>
          <path d="M6.375 6.8125C4.6875 8.97916 2.0875 14.5875 6.6875 18.4375L5.24045 19.9931C4.5734 19.3437 4.15626 18.9375 4.15626 18.9375C2.35939 17.0156 0.875013 13.0156 3.34376 9.375C3.35716 9.35698 3.37078 9.33864 3.38461 9.32C3.90872 8.61416 4.74999 7.48117 6.33357 6.75266L6.375 6.8125Z" fill="#F59F00"/>
          <path d="M17.25 23.6875C18.4531 25.0781 16.9492 26.8496 16.25 27.5938L5.66868 16.5845C7.64313 14.5816 8.94702 14.3814 9.82813 15.25C10.7092 16.1186 10.2969 16.7344 10.2969 16.7344C10.2969 16.7344 11.4909 16.0557 12.75 17.2969C14.0091 18.5381 13.1406 19.4844 13.1406 19.4844C13.1406 19.4844 14.44 19.2504 15.3594 20.2812C16.3906 21.4375 15.7344 22.7812 15.7344 22.7812C15.7344 22.7812 16.5248 22.8493 17.25 23.6875Z" fill="#D67D00"/>
          <path d="M12.4375 8C15.6719 6.70313 20.5781 6.04688 22.8281 6.01562C24.3594 6.01562 26.3091 6.38659 28.375 8.8125C31.6748 12.6873 29.2031 17.1094 27.25 18.9062V17.5C27.25 17.5 19.7436 10.9644 19.5 10.7344C19.05 10.3094 17.1979 10.4375 17 10.5C16.3958 10.6875 15.35 11 14 11.5C12.9023 11.9066 12.0312 11.5781 11.6718 10.7344C11.3124 9.89062 10.8297 8.64466 12.4375 8Z" fill="#FFC83D"/>
          <path d="M28.3106 17.7099C27.9645 18.1804 27.599 18.5852 27.25 18.9063C24.4896 16.5 18.8719 11.5813 18.4219 11.1563C17.9719 10.7313 17.4479 10.75 17.25 10.8125C16.6458 11 15.1 11.5 13.75 12C12.6523 12.4066 11.5469 11.5781 11.1875 10.7344C10.8589 9.96292 10.8321 8.85521 12.0589 8.17831L12.69 7.90133C12.7068 7.89496 12.7235 7.8886 12.7403 7.88226C10.7869 9.34968 12.5116 11.1435 14.125 10.9375C14.6919 10.8651 15.625 10.6719 16.5313 10.4375C16.8909 10.3445 17.2439 10.1794 17.5771 10.0236C18.2021 9.73124 18.7575 9.47151 19.1563 9.78126C20.6561 10.9462 25.1333 14.7492 28.3106 17.7099Z" fill="#D67D00"/>
          <path d="M8.81945 16.8786C8.07602 15.9154 6.69251 15.7372 5.72929 16.4806L3.81252 18.1016C2.92972 18.836 2.70107 20.2103 3.34614 21.103C3.93006 21.9111 4.82674 22.2447 5.64863 22.0112C5.28362 22.846 5.31493 23.914 6.01567 24.5001C6.67051 25.0477 7.47952 25.423 8.29069 25.1697C8.21346 25.7052 8.3713 26.2914 8.92192 26.875C9.44191 27.4262 10.1973 27.7006 11.0083 27.5183C10.9011 28.0902 11.0818 28.7257 11.7507 29.3711C12.57 30.1616 13.8311 30.2288 15.0157 29.1407L15.7879 28.241C16.4082 27.461 17.2658 26.1055 15.9844 24.9532C15.5412 24.5547 15.0316 24.3341 14.5026 24.3327C14.7901 23.6321 14.7847 22.7748 13.9532 21.9532C13.4334 21.4396 12.7958 21.2165 12.0932 21.3852C12.473 20.5766 12.4644 19.7523 11.7032 19.0001C11.0118 18.3169 10.1604 17.9929 9.06004 18.6091C9.25414 18.0144 9.20803 17.3821 8.81945 16.8786Z" fill="#FFC83D"/>
          <path d="M9.03352 17.2422L4.31006 21.9066C4.72783 22.0935 5.1834 22.1356 5.61931 22.0191L9.08879 18.593C9.0792 18.5983 9.0696 18.6036 9.05998 18.609C9.20968 18.1502 9.2165 17.6692 9.03352 17.2422Z" fill="#D67D00"/>
          <path d="M12.2463 19.8263L6.95856 25.0846C7.38419 25.2563 7.83707 25.3112 8.29063 25.1696C8.29067 25.1693 8.29059 25.1698 8.29063 25.1696L12.0982 21.3838C12.0965 21.3842 12.0948 21.3846 12.0932 21.385C12.3378 20.8641 12.4213 20.3367 12.2463 19.8263Z" fill="#D67D00"/>
          <path d="M14.5732 22.8968L9.65496 27.3953C10.0587 27.5722 10.5196 27.6262 11.0004 27.5199L14.5129 24.3071C14.683 23.8795 14.7429 23.3951 14.5732 22.8968Z" fill="#D67D00"/>
        </g>
      </g>
      <text id="ITEM_4_HEAD" x="590.0" y="754.0" font-weight="800" font-size="30" fill="var(--accent-1)" text-anchor="middle" data-bg-id="ITEM_4_BG" fill-opacity="1.0" style="font-size: 31px; font-family: 'Segoe UI Variable Display', 'Aptos Display', 'Inter', 'Segoe UI', Helvetica, Arial, sans-serif; font-weight: 700; font-kerning: normal; font-feature-settings: &quot;kern&quot; 1, &quot;liga&quot; 1; letter-spacing:-0.4px;" data-final-font-size="31">
        <tspan x="590.0" dy="44.48px">Public Assistance</tspan>
      </text>
      <rect id="ITEM_4_HEAD_FRAME" x="380" y="754" width="420" height="58" fill="none"/>
      <text id="ITEM_4_BODY" x="595.0" y="798.0" font-size="18" fill="var(--primary-text)" text-anchor="middle" data-bg-id="ITEM_4_BG" style="font-size: 23px; font-family: 'Segoe UI Variable Text', 'Aptos', 'Inter', 'Segoe UI', Helvetica, Arial, sans-serif; font-weight: 400; font-kerning: normal; font-feature-settings: &quot;kern&quot; 1, &quot;liga&quot; 1;" data-final-font-size="23">
        <tspan x="595.0" dy="44.52px">Filed under general occurrence types</tspan>
        <tspan x="595.0" dy="26.45px">for community help</tspan>
      </text>
      <rect id="ITEM_4_BODY_FRAME" x="360" y="798" width="470" height="148" fill="none"/>
    </g>
    <g filter="url(#svg307f62c6-shadow)">
      <rect id="ITEM_5_BG" x="1000" y="580" width="660" height="370" rx="30" fill="var(--panel)" fill-opacity="0.98" stroke="var(--accent-5)" stroke-width="3"/>
      <rect x="1000" y="590" width="660" height="18" rx="9" fill="var(--accent-5)" fill-opacity="0.55"/>
      <rect x="1170" y="628" width="320" height="32" rx="16" fill="var(--accent-5)" fill-opacity="0.10"/>
      <circle id="ITEM_5_PAD" cx="1330" cy="684" r="54" fill="var(--icon-pad-bg)" opacity="1" fill-opacity="0.9" stroke-width="2" stroke="var(--accent-2)" stroke-opacity="0.72" data-badge-layer="pad"/>
      <circle id="ITEM_5_PAD_INNER" cx="1330" cy="684" r="42.12" fill="var(--accent-2)" fill-opacity="0.12" stroke="none" data-badge-layer="tint"/>
      <circle cx="1330" cy="684" r="42" fill="none" stroke="var(--accent-5)" stroke-width="3" stroke-dasharray="6 4" display="none" data-suppressed-decoration="redundant-badge-ring"/>
      <g id="ITEM_5_ICON" transform="translate(1291, 645)" data-icon-size="78" stroke-linecap="round" stroke-linejoin="round" data-badge-treatment="clean">
        <g transform="translate(-3.1200000000000045,-3.1200000000000045) scale(6.017142857142858)" vector-effect="non-scaling-stroke" stroke-width="2.65" stroke-linecap="round" stroke-linejoin="round" stroke-opacity="1.0">
          <path id="Vector" fill="none" d="M1.5 5h11v7c0 0.2652 -0.1054 0.5196 -0.2929 0.7071S11.7652 13 11.5 13h-9c-0.26522 0 -0.51957 -0.1054 -0.70711 -0.2929C1.60536 12.5196 1.5 12.2652 1.5 12V5Z" vector-effect="non-scaling-stroke" stroke="#f1f5f9"/>
          <path id="Vector_2" fill="none" d="M13.5 4V2c0 -0.55228 -0.4477 -1 -1 -1l-11 0c-0.552285 0 -1 0.44772 -1 1v2c0 0.55228 0.447715 1 1 1l11 0c0.5523 0 1 -0.44772 1 -1Z" vector-effect="non-scaling-stroke" stroke="#f1f5f9"/>
          <path id="Vector_3" stroke="#f1f5f9" d="M1.5 5h11v7c0 0.2652 -0.1054 0.5196 -0.2929 0.7071S11.7652 13 11.5 13h-9c-0.26522 0 -0.51957 -0.1054 -0.70711 -0.2929C1.60536 12.5196 1.5 12.2652 1.5 12V5v0Z" vector-effect="non-scaling-stroke" fill="none"/>
          <path id="Vector_4" stroke="#f1f5f9" d="M13.5 4V2c0 -0.55228 -0.4477 -1 -1 -1l-11 0c-0.552285 0 -1 0.44772 -1 1v2c0 0.55228 0.447715 1 1 1l11 0c0.5523 0 1 -0.44772 1 -1Z" vector-effect="non-scaling-stroke" fill="none"/>
          <path id="Vector_5" stroke="#f1f5f9" d="M5.5 8h3" vector-effect="non-scaling-stroke" fill="none"/>
        </g>
      </g>
      <text id="ITEM_5_HEAD" x="1330.0" y="754.0" font-weight="800" font-size="30" fill="var(--accent-2)" text-anchor="middle" data-bg-id="ITEM_5_BG" fill-opacity="1.0" style="font-size: 31px; font-family: 'Segoe UI Variable Display', 'Aptos Display', 'Inter', 'Segoe UI', Helvetica, Arial, sans-serif; font-weight: 700; font-kerning: normal; font-feature-settings: &quot;kern&quot; 1, &quot;liga&quot; 1; letter-spacing:-0.4px;" data-final-font-size="31">
        <tspan x="1330.0" dy="44.48px">Archival Series</tspan>
      </text>
      <rect id="ITEM_5_HEAD_FRAME" x="1120" y="754" width="420" height="58" fill="none"/>
      <text id="ITEM_5_BODY" x="1335.0" y="798.0" font-size="18" fill="var(--primary-text)" text-anchor="middle" data-bg-id="ITEM_5_BG" style="font-size: 23px; font-family: 'Segoe UI Variable Text', 'Aptos', 'Inter', 'Segoe UI', Helvetica, Arial, sans-serif; font-weight: 400; font-kerning: normal; font-feature-settings: &quot;kern&quot; 1, &quot;liga&quot; 1;" data-final-font-size="23">
        <tspan x="1335.0" dy="44.52px">Stored in broad record series at Library</tspan>
        <tspan x="1335.0" dy="26.45px">and Archives Canada</tspan>
      </text>
      <rect id="ITEM_5_BODY_FRAME" x="1100" y="798" width="470" height="148" fill="none"/>
    </g>
  </g>
  <text id="SOURCE_NOTE" x="134.0" y="1058.0" fill="var(--muted-text)" opacity="0.88" style="font-family: var(--font-family); font-size: 20px;">Source: Introduction</text>
</svg>
