<?xml version='1.0' encoding='utf-8'?>
<svg xmlns="http://www.w3.org/2000/svg" width="1920" height="1080" viewBox="0 0 1920 1080" data-theme="dark" data-semantic-intent="sequence" data-relation-type="sequence" data-site-visual-identity="signal-cobalt">
  <style>
        @font-face {
            font-family: 'Inter';
            src: url('assets/fonts/Inter-Regular.ttf') format('truetype');
            font-weight: 400;
            font-style: normal;
            font-display: swap;
        }
        @font-face {
            font-family: 'Inter';
            src: url('assets/fonts/Inter-Bold.ttf') format('truetype');
            font-weight: 600;
            font-style: normal;
            font-display: swap;
        }
        @font-face {
            font-family: 'Inter';
            src: url('assets/fonts/Inter-Bold.ttf') format('truetype');
            font-weight: 800;
            font-style: normal;
            font-display: swap;
        }
        
:root {
    --background: #0f172a;
    --panel: #1e293b;
    --primary-text: #f1f5f9;
    --muted-text: #94a3b8;
    --inverse-text: #0f172a;
    --border: #334155;
    --shadow-color: #000000;
    --icon-pad-bg: #1e293b;
    --art-glow: #7dd3fc;
    --art-glow-opacity: 0.18;
    --art-sheen: #ffffff;
    --art-sheen-opacity: 0.18;
    --art-shadow: #000000;
    --art-shadow-opacity: 0.28;
    --art-muted-line: #64748b;
    --art-panel-tint: #1e293b;
    --semantic-risk: #f87171;
    --semantic-warning: #fb923c;
    --semantic-uncertain: #fbbf24;
    --semantic-evidence: #60a5fa;
    --semantic-claim: #c084fc;
    --semantic-positive: #4ade80;
    --semantic-outcome: #22d3ee;
    --font-family: 'Inter', 'Segoe UI', 'Kalam', Roboto, Helvetica, Arial, sans-serif;
    --radius-xl: 16px;
    --font-family-headline: 'Segoe UI Variable Display', 'Aptos Display', 'Inter', 'Segoe UI', Helvetica, Arial, sans-serif;
    --font-family-body: 'Segoe UI Variable Text', 'Aptos', 'Inter', 'Segoe UI', Helvetica, Arial, sans-serif;
    --font-heading: var(--font-family-headline);
    --font-body: var(--font-family-body);
    --font-size-h1: 64px;
    --font-size-h2: 42px;
    --font-size-h3: 29px;
    --font-size-body: 21px;
    --font-size-caption: 17px;
    --secondary-text: var(--muted-text);
    --panel-border: var(--border);
    --font-weight-normal: 400;
    --font-weight-medium: 500;
    --font-weight-semibold: 600;
    --font-weight-bold: 700;
    --spacing-gutter-pct: 0.07;
    --spacing-top-pct: 0.15;
    --spacing-bottom-pct: 0.07;
    --spacing-title-y-pct: 0.055;
    --accent-1: #93c5fd;
    --accent-2: #60a5fa;
    --accent-3: #818cf8;
    --accent-4: #a78bfa;
    --accent-5: #38bdf8;
    --accent-6: #fb923c;
}
:root[data-theme="dark"] {
    --background: #0f172a;
    --panel: #1e293b;
    --primary-text: #f1f5f9;
    --muted-text: #94a3b8;
    --inverse-text: #0f172a;
    --border: #334155;
    --shadow-color: #000000;
    --icon-pad-bg: #1e293b;
    --art-glow: #7dd3fc;
    --art-glow-opacity: 0.18;
    --art-sheen: #ffffff;
    --art-sheen-opacity: 0.18;
    --art-shadow: #000000;
    --art-shadow-opacity: 0.28;
    --art-muted-line: #64748b;
    --art-panel-tint: #1e293b;
    --semantic-risk: #f87171;
    --semantic-warning: #fb923c;
    --semantic-uncertain: #fbbf24;
    --semantic-evidence: #60a5fa;
    --semantic-claim: #c084fc;
    --semantic-positive: #4ade80;
    --semantic-outcome: #22d3ee;
    --accent-1: #93c5fd;
    --accent-2: #60a5fa;
    --accent-3: #818cf8;
    --accent-4: #a78bfa;
    --accent-5: #38bdf8;
    --accent-6: #fb923c;
}
:root[data-theme="light"] {
    --background: #f8fafc;
    --panel: #ffffff;
    --primary-text: #0f172a;
    --muted-text: #64748b;
    --inverse-text: #ffffff;
    --border: #e2e8f0;
    --shadow-color: #000000;
    --icon-pad-bg: #1e293b;
    --art-glow: #0891b2;
    --art-glow-opacity: 0.10;
    --art-sheen: #ffffff;
    --art-sheen-opacity: 0.34;
    --art-shadow: #0f172a;
    --art-shadow-opacity: 0.14;
    --art-muted-line: #94a3b8;
    --art-panel-tint: #f1f5f9;
    --semantic-risk: #b91c1c;
    --semantic-warning: #c2410c;
    --semantic-uncertain: #a16207;
    --semantic-evidence: #1d4ed8;
    --semantic-claim: #6d28d9;
    --semantic-positive: #15803d;
    --semantic-outcome: #0e7490;
    --accent-1: #1d4ed8;
    --accent-2: #2563eb;
    --accent-3: #4f46e5;
    --accent-4: #6d28d9;
    --accent-5: #0369a1;
    --accent-6: #c2410c;
}</style>
  <rect x="0" y="0" width="1.92E+3" height="1.08E+3" fill="#252a34" stroke="none" id="programmatic_background"/>
  <line id="HEADER_DECOR" x1="960.0" x2="1080.0" y1="135.0" y2="135.0" stroke="var(--accent-1)" stroke-width="6" stroke-linecap="round"/>
  <defs>
    <pattern id="svg116be395-napkin-hatch" patternUnits="userSpaceOnUse" width="12" height="12">
      <path d="M -3 12 L 12 -3 M 0 15 L 15 0" fill="none" stroke="var(--primary-text)" stroke-width="1" stroke-opacity="0.05"/>
    </pattern>
    <radialGradient id="svg116be395-universal-edge-vignette" cx="50%" cy="50%" r="72%">
      <stop offset="0%" stop-color="var(--background)" stop-opacity="0"/>
      <stop offset="72%" stop-color="var(--background)" stop-opacity="0.12"/>
      <stop offset="100%" stop-color="var(--primary-text)" stop-opacity="0.08"/>
    </radialGradient>
    <linearGradient id="svg116be395-universal-surface-sheen" x1="0%" y1="0%" x2="100%" y2="100%">
      <stop offset="0%" stop-color="var(--art-sheen)" stop-opacity="var(--art-sheen-opacity)"/>
      <stop offset="46%" stop-color="var(--art-sheen)" stop-opacity="0.035"/>
      <stop offset="100%" stop-color="var(--art-panel-tint)" stop-opacity="0.14"/>
    </linearGradient>
    <radialGradient id="svg116be395-universal-icon-aura" cx="50%" cy="42%" r="64%">
      <stop offset="0%" stop-color="var(--art-glow)" stop-opacity="var(--art-glow-opacity)"/>
      <stop offset="100%" stop-color="var(--background)" stop-opacity="0"/>
    </radialGradient>
    <filter id="svg116be395-text-glow" x="-20%" y="-20%" width="140%" height="140%">
      <feDropShadow dx="0" dy="0" stdDeviation="2" flood-color="#000000" flood-opacity="0.4"/>
    </filter>
    <filter id="svg116be395-shadow" x="-30%" y="-30%" width="160%" height="160%">
      <feDropShadow dx="0" dy="2" stdDeviation="3" flood-color="#000000" flood-opacity="0.08"/>
      <feDropShadow dx="0" dy="6" stdDeviation="10" flood-color="#000000" flood-opacity="0.12"/>
    </filter>
    <marker id="svg116be395-arrowhead" markerWidth="10" markerHeight="7" refX="9" refY="3.5" orient="auto" markerUnits="strokeWidth">
      <polygon points="0 0, 10 3.5, 0 7" fill="var(--muted-text)" opacity="0.6"/>
    </marker>
    <marker id="svg116be395-PHX_SEQUENCE_DIRECTION_ARROW" markerWidth="18" markerHeight="18" refX="16" refY="9" orient="auto" markerUnits="userSpaceOnUse">
      <path d="M 0 0 L 18 9 L 0 18 Z" fill="var(--muted-text)" opacity="0.9"/>
    </marker>
  </defs>
  <rect width="100%" height="100%" fill="var(--background)" id="CANVAS_BG"/>
  <rect width="100%" height="100%" fill="url(#svg116be395-napkin-hatch)"/>
  <rect id="UNIVERSAL_EDGE_VIGNETTE" width="100%" height="100%" fill="url(#svg116be395-universal-edge-vignette)" opacity="0.62"/>
  <text id="TITLE" x="960.0" y="59" text-anchor="middle" font-size="63" font-weight="700" fill="#f1f5f9" style="font-size: 69px; font-family: 'Segoe UI Variable Display', 'Aptos Display', 'Inter', 'Segoe UI', Helvetica, Arial, sans-serif; font-weight: 800; font-kerning: normal; font-feature-settings: &quot;kern&quot; 1, &quot;liga&quot; 1; letter-spacing:-1.2px;" data-final-font-size="69">
    <tspan x="960.0" dy="70.47px">Langenburg Encounter 1974 Time line</tspan>
  </text>
  <rect id="TITLE_FRAME" x="134" y="59" width="1652" height="103" fill="none"/>
  <g id="DIAGRAM_SCALER" transform="translate(50.6, 32.5) scale(0.95)">
    <line x1="120" y1="675" x2="1800" y2="675" stroke="var(--panel)" stroke-width="3" stroke-linecap="round" marker-end="url(#svg116be395-PHX_SEQUENCE_DIRECTION_ARROW)" data-direction-cue="forward"/>
    <g transform="translate(345.0, 675.0)">
      <line x1="0" y1="0" x2="0" y2="-180" stroke="var(--accent-1)" stroke-width="2"/>
      <circle id="ITEM_1_NODE" cx="0" cy="-180" r="50" fill="var(--background)" stroke="var(--accent-1)" stroke-width="2" stroke-opacity="0.58" data-badge-layer="outline"/>
      <g transform="translate(0.0, 45.0)">
        <rect x="-150" y="-15" width="300" height="165" rx="12" fill="var(--panel)" id="ITEM_1_BG" stroke="var(--accent-1)" stroke-width="2"/>
        <text id="ITEM_1_HEAD" text-anchor="middle" font-weight="bold" font-size="27" fill="var(--accent-1)" x="0.0" y="0.0" data-bg-id="ITEM_1_BG" fill-opacity="1.0" stroke="none" style="font-size: 31px; font-family: 'Segoe UI Variable Display', 'Aptos Display', 'Inter', 'Segoe UI', Helvetica, Arial, sans-serif; font-weight: 700; font-kerning: normal; font-feature-settings: &quot;kern&quot; 1, &quot;liga&quot; 1; letter-spacing:-0.4px;" data-final-font-size="31">
          <tspan x="0.0" dy="34.02px">Initial Sighting</tspan>
        </text>
        <rect id="ITEM_1_HEAD_FRAME" x="-135" y="0" width="270" height="51" fill="none"/>
        <text id="ITEM_1_BODY" text-anchor="middle" font-size="19.5" fill="var(--primary-text)" x="0.0" y="60.0" data-bg-id="ITEM_1_BG" style="font-size: 23px; font-family: 'Segoe UI Variable Text', 'Aptos', 'Inter', 'Segoe UI', Helvetica, Arial, sans-serif; font-weight: 400; font-kerning: normal; font-feature-settings: &quot;kern&quot; 1, &quot;liga&quot; 1;" data-final-font-size="23">
          <tspan x="0.0" dy="26.53px">Farmer observes five</tspan>
          <tspan x="0.0" dy="26.45px">metallic objects at</tspan>
          <tspan x="0.0" dy="26.45px">10:30 am</tspan>
        </text>
        <rect id="ITEM_1_BODY_FRAME" x="-152" y="60" width="304" height="120" fill="none" data-side-overflow-fix="38.0|38.0"/>
      </g>
      <circle id="ITEM_1_PAD" cx="0" cy="-180" r="50" fill="var(--icon-pad-bg)" stroke="var(--accent-1)" opacity="1" fill-opacity="0.9" stroke-width="2" stroke-opacity="0.72" data-badge-layer="pad"/>
      <circle id="ITEM_1_PAD_INNER" cx="0" cy="-180" r="39.00" fill="var(--accent-1)" fill-opacity="0.12" stroke="none" data-badge-layer="tint"/>
      <circle cx="0" cy="-180" r="40" fill="none" stroke="var(--accent-1)" stroke-width="3" stroke-dasharray="6 4" display="none" data-suppressed-decoration="redundant-badge-ring"/>
      <g id="ITEM_1_ICON" transform="translate(-30.0, -210.0)" data-icon-size="60" stroke-linecap="round" stroke-linejoin="round" data-badge-treatment="clean">
        <g transform="translate(-14.52212389380531,-21.424778761061948) scale(2.7610619469026547)">
          <path d="M15 7C14.4477 7 14 7.44772 14 8C14 8.55228 14.4477 9 15 9H15.6772L20.8386 9.99539L26 9V8C26 7.44772 25.5523 7 25 7H15ZM26 16L19 14.5L11 16.0001H5C3.5 16.0001 2 17.5 2 19.0301V19.9929V20.0101V25.0038C2 26.1018 2.89931 27.0001 3.99846 27.0001H14.98H25.2521C26.7709 27.0001 28 25.7724 28 24.2551V18.4357C28 17.2376 27.139 16.2447 26 16.0391C26 16 26 16 26 16Z" fill="#00F397"/>
          <path d="M10 17H9V13.4988C9 13.2195 9.22 13 9.5 13C9.78 13 10 13.2195 10 13.4988V17Z" fill="#D3D3D3"/>
          <path d="M10 14H9V15H10V14Z" fill="#9B9B9B"/>
          <path d="M30 24.5101C30 27.5477 27.5376 30.0101 24.5 30.0101C21.4625 30.0101 19 27.5477 19 24.5101C19 21.4726 21.4625 19.0101 24.5 19.0101C27.5376 19.0101 30 21.4726 30 24.5101ZM11.02 26.5101C11.02 28.4431 9.45302 30.0101 7.52002 30.0101C5.58702 30.0101 4.02002 28.4431 4.02002 26.5101C4.02002 24.5771 5.58702 23.0101 7.52002 23.0101C9.45302 23.0101 11.02 24.5771 11.02 26.5101Z" fill="#321B41"/>
          <path d="M27 24.5C27 25.8807 25.8807 27 24.5 27C23.1193 27 22 25.8807 22 24.5C22 23.1193 23.1193 22 24.5 22C25.8807 22 27 23.1193 27 24.5ZM9 26.5C9 27.3284 8.32843 28 7.5 28C6.67157 28 6 27.3284 6 26.5C6 25.6716 6.67157 25 7.5 25C8.32843 25 9 25.6716 9 26.5Z" fill="#D3D3D3"/>
          <path d="M15.68 9L11 16H25V9H15.68Z" fill="#26C9FC"/>
          <path d="M18 9H17V16H18V9ZM26 9H25V16H26V9ZM23.99 18.0001C20.6772 18.0001 18 20.6852 18 24C18 24.2761 17.7762 24.5 17.5 24.5C17.2239 24.5 17 24.2761 17 24C17 20.1348 20.1229 17.0001 23.99 17.0001H29.51C29.7862 17.0001 30.01 17.224 30.01 17.5001C30.01 17.7763 29.7862 18.0001 29.51 18.0001H23.99ZM5.52002 21.5101C5.52002 21.234 5.74388 21.0101 6.02002 21.0101H8.51002C10.9962 21.0101 13.01 23.024 13.01 25.5101C13.01 25.7863 12.7862 26.0101 12.51 26.0101C12.2339 26.0101 12.01 25.7863 12.01 25.5101C12.01 23.5763 10.4439 22.0101 8.51002 22.0101H6.02002C5.74388 22.0101 5.52002 21.7863 5.52002 21.5101Z" fill="#008463"/>
          <path d="M3.50739 20.0001H2V19.0001H3.50739C3.78325 19.0001 4 19.2201 4 19.5001C4 19.7801 3.78325 20.0001 3.50739 20.0001ZM3.50739 22H2V21H3.50739C3.78325 21 4 21.22 4 21.5C4 21.77 3.78325 22 3.50739 22ZM2 24H3.50739C3.78325 24 4 23.77 4 23.5C4 23.22 3.78325 23 3.50739 23H2V24Z" fill="#321B41"/>
        </g>
      </g>
    </g>
    <g transform="translate(750.0, 675.0)">
      <line x1="0" y1="0" x2="0" y2="-300" stroke="var(--accent-2)" stroke-width="2"/>
      <circle id="ITEM_2_NODE" cx="0" cy="-300" r="50" fill="var(--background)" stroke="var(--accent-2)" stroke-width="2" stroke-opacity="0.58" data-badge-layer="outline"/>
      <g transform="translate(0.0, 45.0)">
        <rect x="-150" y="-15" width="300" height="165" rx="12" fill="var(--panel)" id="ITEM_2_BG" stroke="var(--accent-2)" stroke-width="2"/>
        <text id="ITEM_2_HEAD" text-anchor="middle" font-weight="bold" font-size="27" fill="var(--accent-2)" x="0.0" y="0.0" data-bg-id="ITEM_2_BG" fill-opacity="1.0" stroke="none" style="font-size: 31px; font-family: 'Segoe UI Variable Display', 'Aptos Display', 'Inter', 'Segoe UI', Helvetica, Arial, sans-serif; font-weight: 700; font-kerning: normal; font-feature-settings: &quot;kern&quot; 1, &quot;liga&quot; 1; letter-spacing:-0.4px;" data-final-font-size="31">
          <tspan x="0.0" dy="34.02px">Close Observation</tspan>
        </text>
        <rect id="ITEM_2_HEAD_FRAME" x="-135" y="0" width="270" height="51" fill="none"/>
        <text id="ITEM_2_BODY" text-anchor="middle" font-size="19.5" fill="var(--primary-text)" x="-0.5" y="60.0" data-bg-id="ITEM_2_BG" style="font-size: 23px; font-family: 'Segoe UI Variable Text', 'Aptos', 'Inter', 'Segoe UI', Helvetica, Arial, sans-serif; font-weight: 400; font-kerning: normal; font-feature-settings: &quot;kern&quot; 1, &quot;liga&quot; 1;" data-final-font-size="23">
          <tspan x="-0.5" dy="31.82px">Fuhr watches objects hover</tspan>
          <tspan x="-0.5" dy="26.45px">and rotate for 15 minutes</tspan>
        </text>
        <rect id="ITEM_2_BODY_FRAME" x="-153" y="60" width="305" height="120" fill="none" data-side-overflow-fix="37.0|38.0"/>
      </g>
      <circle id="ITEM_2_PAD" cx="0" cy="-300" r="50" fill="var(--icon-pad-bg)" stroke="var(--accent-2)" opacity="1" fill-opacity="0.9" stroke-width="2" stroke-opacity="0.72" data-badge-layer="pad"/>
      <circle id="ITEM_2_PAD_INNER" cx="0" cy="-300" r="39.00" fill="var(--accent-2)" fill-opacity="0.12" stroke="none" data-badge-layer="tint"/>
      <circle cx="0" cy="-300" r="40" fill="none" stroke="var(--accent-2)" stroke-width="3" stroke-dasharray="6 4" display="none" data-suppressed-decoration="redundant-badge-ring"/>
      <g id="ITEM_2_ICON" transform="translate(-30.0, -330.0)" data-icon-size="60" stroke-linecap="round" stroke-linejoin="round" data-badge-treatment="clean">
        <g transform="translate(-16.66071428571428,-14.571428571428571) scale(2.7857142857142856)">
          <path d="M9 3C9 2.44771 9.44772 2 10 2H22C22.5523 2 23 2.44772 23 3V7.25209C21.0298 5.83476 18.6124 5 16 5C13.3876 5 10.9702 5.83476 9 7.25209V3Z" fill="#3F5FFF"/>
          <path d="M16 27C18.6124 27 21.0298 26.1652 23 24.7479V29C23 29.5523 22.5523 30 22 30H10C9.44772 30 9 29.5523 9 29V24.7479C10.9702 26.1652 13.3876 27 16 27Z" fill="#3F5FFF"/>
          <path d="M27 14C26.4477 14 26 14.4477 26 15V17C26 17.5523 26.4477 18 27 18H28.5C29.0523 18 29.5 17.5523 29.5 17V15C29.5 14.4477 29.0523 14 28.5 14H27Z" fill="#3F5FFF"/>
          <path d="M28 16C28 22.6274 22.6274 28 16 28C9.37258 28 4 22.6274 4 16C4 9.37258 9.37258 4 16 4C22.6274 4 28 9.37258 28 16Z" fill="#A4AEEB"/>
          <path d="M25 16C25 20.9706 20.9706 25 16 25C11.0294 25 7 20.9706 7 16C7 11.0294 11.0294 7 16 7C20.9706 7 25 11.0294 25 16Z" fill="#5235A6"/>
          <path d="M16 8C15.4477 8 15 8.44772 15 9V15C15 15.2108 15.0652 15.4064 15.1766 15.5676L11.9103 19.2092C11.5415 19.6203 11.5758 20.2526 11.987 20.6213C12.3981 20.9901 13.0303 20.9558 13.3991 20.5446L16.7376 16.8225C17.054 16.4698 17.0737 15.9543 16.8132 15.5821C16.9308 15.4181 17 15.2171 17 15V9C17 8.44772 16.5523 8 16 8Z" fill="white"/>
          <path d="M18 16C18 17.1046 17.1046 18 16 18C14.8954 18 14 17.1046 14 16C14 14.8954 14.8954 14 16 14C17.1046 14 18 14.8954 18 16Z" fill="#FCD53F"/>
        </g>
      </g>
    </g>
    <g transform="translate(1155.0, 675.0)">
      <line x1="0" y1="0" x2="0" y2="-240" stroke="var(--accent-3)" stroke-width="2"/>
      <circle id="ITEM_3_NODE" cx="0" cy="-240" r="50" fill="var(--background)" stroke="var(--accent-3)" stroke-width="2" stroke-opacity="0.58" data-badge-layer="outline"/>
      <g transform="translate(0.0, 45.0)">
        <rect x="-150" y="-15" width="300" height="165" rx="12" fill="var(--panel)" id="ITEM_3_BG" stroke="var(--accent-3)" stroke-width="2"/>
        <text id="ITEM_3_HEAD" text-anchor="middle" font-weight="bold" font-size="27" fill="var(--accent-3)" x="0.0" y="0.0" data-bg-id="ITEM_3_BG" fill-opacity="1.0" stroke="none" style="font-size: 31px; font-family: 'Segoe UI Variable Display', 'Aptos Display', 'Inter', 'Segoe UI', Helvetica, Arial, sans-serif; font-weight: 700; font-kerning: normal; font-feature-settings: &quot;kern&quot; 1, &quot;liga&quot; 1; letter-spacing:-0.4px;" data-final-font-size="31">
          <tspan x="0.0" dy="34.02px">Rapid Departure</tspan>
        </text>
        <rect id="ITEM_3_HEAD_FRAME" x="-135" y="0" width="270" height="51" fill="none"/>
        <text id="ITEM_3_BODY" text-anchor="middle" font-size="19.5" fill="var(--primary-text)" x="-0.5" y="60.0" data-bg-id="ITEM_3_BG" style="font-size: 23px; font-family: 'Segoe UI Variable Text', 'Aptos', 'Inter', 'Segoe UI', Helvetica, Arial, sans-serif; font-weight: 400; font-kerning: normal; font-feature-settings: &quot;kern&quot; 1, &quot;liga&quot; 1;" data-final-font-size="23">
          <tspan x="-0.5" dy="26.53px">Objects rise vertically</tspan>
          <tspan x="-0.5" dy="26.45px">into clouds producing</tspan>
          <tspan x="-0.5" dy="26.45px">grey vapour</tspan>
        </text>
        <rect id="ITEM_3_BODY_FRAME" x="-153" y="60" width="305" height="120" fill="none" data-side-overflow-fix="37.0|38.0"/>
      </g>
      <circle id="ITEM_3_PAD" cx="0" cy="-240" r="50" fill="var(--icon-pad-bg)" stroke="var(--accent-3)" opacity="1" fill-opacity="0.9" stroke-width="2" stroke-opacity="0.72" data-badge-layer="pad"/>
      <circle id="ITEM_3_PAD_INNER" cx="0" cy="-240" r="39.00" fill="var(--accent-3)" fill-opacity="0.12" stroke="none" data-badge-layer="tint"/>
      <circle cx="0" cy="-240" r="40" fill="none" stroke="var(--accent-3)" stroke-width="3" stroke-dasharray="6 4" display="none" data-suppressed-decoration="redundant-badge-ring"/>
      <g id="ITEM_3_ICON" transform="translate(-30.0, -270.0)" data-icon-size="60" stroke-linecap="round" stroke-linejoin="round" data-badge-treatment="clean">
        <g transform="translate(-11.6,-11.600000000000001) scale(2.6)">
          <path d="M27.938 8.83821C24.0423 5.04133 17.8344 5.05797 13.9753 8.86406C13.4392 8.67001 12.8612 8.56433 12.26 8.56433C10.458 8.56433 8.87859 9.50994 7.98809 10.929C4.08596 11.1722 1 14.4106 1 18.3743C1 20.1277 1.61099 21.7416 2.62059 23.0183C3.99219 24.8117 6.14877 25.9643 8.58 25.9643H21.27C24.4212 25.9643 27.2042 24.4125 28.9045 22.0385C31.9165 18.083 31.5813 12.4038 27.9394 8.83964L27.938 8.83821Z" fill="#B4ACBC"/>
          <path d="M14.55 9.70434C18.01 6.15434 23.69 6.09434 27.24 9.55434C30.52 12.7643 30.82 17.8843 28.1 21.4443C26.58 23.5743 24.09 24.9643 21.27 24.9643H8.58C6.47 24.9643 4.6 23.9643 3.41 22.4043C2.53 21.2943 2 19.8943 2 18.3743C2 14.8043 4.89 11.9143 8.46 11.9143C8.50303 11.9143 8.54595 11.9148 8.58877 11.9156C9.22825 10.5277 10.6316 9.56433 12.26 9.56433C12.9685 9.56433 13.6345 9.74673 14.2134 10.0671C14.3215 9.94392 14.4337 9.82294 14.55 9.70434Z" fill="#F3EEF8"/>
        </g>
      </g>
    </g>
    <g transform="translate(1560.0, 675.0)">
      <line x1="0" y1="0" x2="0" y2="-180" stroke="var(--accent-4)" stroke-width="2"/>
      <circle id="ITEM_4_NODE" cx="0" cy="-180" r="50" fill="var(--background)" stroke="var(--accent-1)" stroke-width="2" stroke-opacity="0.58" data-badge-layer="outline"/>
      <g transform="translate(0.0, 45.0)">
        <rect x="-150" y="-15" width="300" height="165" rx="12" fill="var(--panel)" id="ITEM_4_BG" stroke="var(--accent-4)" stroke-width="2"/>
        <text id="ITEM_4_HEAD" text-anchor="middle" font-weight="bold" font-size="27" fill="var(--accent-1)" x="0.0" y="0.0" data-bg-id="ITEM_4_BG" fill-opacity="1.0" stroke="none" style="font-size: 31px; font-family: 'Segoe UI Variable Display', 'Aptos Display', 'Inter', 'Segoe UI', Helvetica, Arial, sans-serif; font-weight: 700; font-kerning: normal; font-feature-settings: &quot;kern&quot; 1, &quot;liga&quot; 1; letter-spacing:-0.4px;" data-final-font-size="31">
          <tspan x="0.0" dy="34.02px">Police Inspection</tspan>
        </text>
        <rect id="ITEM_4_HEAD_FRAME" x="-135" y="0" width="270" height="51" fill="none"/>
        <text id="ITEM_4_BODY" text-anchor="middle" font-size="19.5" fill="var(--primary-text)" x="0.0" y="60.0" data-bg-id="ITEM_4_BG" style="font-size: 23px; font-family: 'Segoe UI Variable Text', 'Aptos', 'Inter', 'Segoe UI', Helvetica, Arial, sans-serif; font-weight: 400; font-kerning: normal; font-feature-settings: &quot;kern&quot; 1, &quot;liga&quot; 1;" data-final-font-size="23">
          <tspan x="0.0" dy="26.53px">RCMP constable photographs</tspan>
          <tspan x="0.0" dy="26.45px">and measures circular</tspan>
          <tspan x="0.0" dy="26.45px">ground marks</tspan>
        </text>
        <rect id="ITEM_4_BODY_FRAME" x="-152" y="60" width="304" height="120" fill="none" data-side-overflow-fix="38.0|38.0"/>
      </g>
      <circle id="ITEM_4_PAD" cx="0" cy="-180" r="50" fill="var(--icon-pad-bg)" stroke="var(--accent-1)" opacity="1" fill-opacity="0.9" stroke-width="2" stroke-opacity="0.72" data-badge-layer="pad"/>
      <circle id="ITEM_4_PAD_INNER" cx="0" cy="-180" r="39.00" fill="var(--accent-1)" fill-opacity="0.12" stroke="none" data-badge-layer="tint"/>
      <circle cx="0" cy="-180" r="40" fill="none" stroke="var(--accent-4)" stroke-width="3" stroke-dasharray="6 4" display="none" data-suppressed-decoration="redundant-badge-ring"/>
      <g id="ITEM_4_ICON" transform="translate(-30.0, -210.0)" data-icon-size="60" stroke-linecap="round" stroke-linejoin="round" data-badge-treatment="clean">
        <g transform="translate(-14.571428571428571,-27.107142857142854) scale(2.7857142857142856)">
          <path d="M5.5 11C5.22386 11 5 11.2239 5 11.5V13H9V11.5C9 11.2239 8.77614 11 8.5 11H5.5Z" fill="#D3D3D3"/>
          <path d="M21.5 11C21.2239 11 21 11.2239 21 11.5V13H27V11.5C27 11.2239 26.7761 11 26.5 11H21.5Z" fill="#D3D3D3"/>
          <path d="M2 14C2 12.8954 2.89543 12 4 12H28C29.1046 12 30 12.8954 30 14V16.5L28 22L30 27.5V28C30 29.1046 29.1046 30 28 30H4C2.89543 30 2 29.1046 2 28V27.5L3.5 22L2 16.5V14Z" fill="#E6E6E6"/>
          <path d="M2 16.5C2 16.2239 2.22386 16 2.5 16H29.5C29.7761 16 30 16.2239 30 16.5V27.5C30 27.7761 29.7761 28 29.5 28H2.5C2.22386 28 2 27.7761 2 27.5V16.5Z" fill="#533566"/>
          <path d="M22 22C22 25.3137 19.3137 28 16 28C12.6863 28 10 25.3137 10 22C10 18.6863 12.6863 16 16 16C19.3137 16 22 18.6863 22 22Z" fill="#321B41"/>
          <path d="M16 27C18.7614 27 21 24.7614 21 22C21 19.2386 18.7614 17 16 17C13.2386 17 11 19.2386 11 22C11 24.7614 13.2386 27 16 27ZM16 29C12.134 29 9 25.866 9 22C9 18.134 12.134 15 16 15C19.866 15 23 18.134 23 22C23 25.866 19.866 29 16 29Z" fill="#9B9B9B"/>
          <path d="M18.5 22C18.5 23.3807 17.3807 24.5 16 24.5C14.6193 24.5 13.5 23.3807 13.5 22C13.5 20.6193 14.6193 19.5 16 19.5C17.3807 19.5 18.5 20.6193 18.5 22Z" fill="#433B6B"/>
          <path d="M19.0825 19.875C19.4967 20.5924 19.4448 21.3979 18.9665 21.674C18.4882 21.9501 17.7647 21.5924 17.3505 20.875C16.9363 20.1575 16.9882 19.3521 17.4665 19.0759C17.9448 18.7998 18.6683 19.1575 19.0825 19.875Z" fill="white"/>
        </g>
      </g>
    </g>
    <line id="PHX_SEQUENCE_MIDROUTE_ARROW_1" x1="932.0" y1="675.0" x2="988.0" y2="675.0" stroke="var(--muted-text)" opacity="0.92" stroke-width="5" stroke-linecap="round" marker-end="url(#svg116be395-PHX_SEQUENCE_DIRECTION_ARROW)" data-direction-cue="forward"/>
  </g>
  <text id="SOURCE_NOTE" x="134.0" y="1058.0" fill="var(--muted-text)" opacity="0.88" style="font-family: var(--font-family); font-size: 20px;">Source: Introduction</text>
</svg>
